<?xml version="1.0" encoding="UTF-8"?><svg id="Layer_1" xmlns="http://www.w3.org/2000/svg" viewBox="0 0 144 57.54"><defs><style>.cls-1{fill:#698c4b;}.cls-2{fill:#f37f81;}.cls-3{fill:#7bc2cc;}.cls-4{fill:#74687b;}.cls-5{fill:#d7b36a;}.cls-6{fill:#5e707b;}</style></defs><path class="cls-6" d="M65.05,19.67c-1.15,0-2.2-.19-3.17-.58-.97-.38-1.8-.93-2.52-1.63-.71-.7-1.26-1.54-1.64-2.5-.38-.96-.58-2.03-.58-3.19s.2-2.18.61-3.14c.41-.96.97-1.79,1.69-2.49.72-.7,1.57-1.25,2.55-1.64.98-.39,2.05-.59,3.21-.59.73,0,1.44.09,2.13.28.7.19,1.35.47,1.95.84.6.37,1.12.81,1.56,1.32l-2.27,2.59c-.3-.32-.63-.6-.97-.84-.34-.24-.72-.42-1.12-.55-.41-.13-.84-.2-1.31-.2-.58,0-1.13.1-1.64.32-.52.21-.97.51-1.35.89-.39.38-.69.85-.9,1.4-.22.55-.33,1.17-.33,1.85s.11,1.27.33,1.82c.22.54.52,1.01.91,1.4.39.39.87.69,1.43.89.56.2,1.18.3,1.86.3.46,0,.91-.07,1.33-.2.42-.13.81-.31,1.17-.53.36-.23.67-.48.95-.77l1.79,2.83c-.36.41-.85.77-1.45,1.09-.6.32-1.27.57-2,.75-.73.18-1.47.27-2.21.27"/><path class="cls-6" d="M76.92,19.65c-.97,0-1.84-.26-2.6-.77-.76-.51-1.37-1.23-1.82-2.13-.45-.91-.68-1.94-.68-3.08s.23-2.21.68-3.11c.45-.9,1.07-1.61,1.85-2.12.78-.51,1.68-.77,2.68-.77.55,0,1.06.08,1.51.24.46.16.86.38,1.21.66.35.28.65.61.89.98.25.37.43.77.54,1.19l-.72-.09v-2.74h3.46v11.56h-3.53v-2.79l.78-.02c-.12.41-.31.79-.57,1.15-.26.36-.58.68-.96.96-.38.28-.8.49-1.26.65-.46.16-.96.24-1.48.24M77.88,16.71c.54,0,1-.12,1.39-.37.39-.25.7-.6.91-1.06s.33-1,.33-1.62-.11-1.17-.33-1.62c-.22-.46-.52-.81-.91-1.07-.39-.25-.86-.38-1.39-.38s-.98.13-1.36.38c-.38.25-.69.61-.9,1.07-.22.46-.33,1-.33,1.62s.11,1.17.33,1.62c.22.46.52.81.9,1.06.38.25.84.37,1.36.37"/><path class="cls-6" d="M86.79,19.46V7.89h3.31l.11,2.35-.7.26c.16-.52.45-1,.86-1.43.41-.43.91-.77,1.49-1.03.58-.26,1.19-.39,1.83-.39.87,0,1.6.18,2.2.53.59.36,1.04.89,1.35,1.59.3.7.46,1.56.46,2.58v7.1h-3.51v-6.82c0-.46-.07-.85-.2-1.15-.13-.31-.33-.53-.6-.69s-.6-.22-.99-.21c-.3,0-.59.05-.85.14-.26.09-.49.23-.68.41-.19.18-.34.39-.45.62-.11.23-.16.49-.16.76v6.93h-3.48Z"/><path class="cls-6" d="M105.47,19.67c-1.12,0-2.12-.26-3.01-.78-.89-.52-1.59-1.24-2.1-2.15-.52-.91-.77-1.94-.77-3.08s.26-2.17.77-3.08c.52-.91,1.22-1.62,2.1-2.14.89-.52,1.89-.78,3.01-.78,1.03,0,1.98.18,2.84.54.86.36,1.55.87,2.06,1.52l-1.9,2.26c-.2-.23-.44-.45-.72-.65-.28-.2-.58-.36-.92-.48-.33-.12-.68-.17-1.04-.17-.55,0-1.04.13-1.46.38-.42.25-.75.61-.98,1.06-.23.45-.35.97-.35,1.55s.12,1.05.36,1.5c.24.45.57.81.99,1.07.42.26.9.39,1.44.39.38,0,.73-.05,1.04-.14.32-.09.61-.24.88-.43.27-.19.52-.42.75-.7l1.87,2.29c-.49.62-1.18,1.12-2.06,1.48-.88.36-1.82.54-2.82.54"/><path class="cls-6" d="M117.56,19.67c-1.28,0-2.39-.26-3.33-.77-.94-.52-1.68-1.22-2.2-2.11-.52-.89-.78-1.91-.78-3.06,0-.89.14-1.7.44-2.44.29-.74.7-1.38,1.22-1.93.52-.54,1.14-.97,1.86-1.26.72-.3,1.51-.45,2.36-.45s1.56.15,2.23.44c.68.29,1.26.7,1.75,1.22.49.52.87,1.14,1.13,1.85s.38,1.49.35,2.33l-.02.94h-9.21l-.5-1.96h6.88l-.37.41v-.44c-.03-.36-.14-.69-.34-.97-.2-.28-.45-.5-.77-.66-.32-.16-.68-.24-1.09-.24-.57,0-1.05.11-1.45.34-.4.23-.7.55-.9.98-.2.43-.3.96-.3,1.58s.13,1.2.4,1.67c.27.47.66.84,1.18,1.1.51.26,1.13.39,1.84.39.49,0,.93-.07,1.32-.22.38-.14.8-.39,1.25-.74l1.63,2.31c-.45.39-.93.71-1.44.96-.51.25-1.03.43-1.56.56-.53.12-1.06.19-1.58.19"/><path class="cls-6" d="M124.6,19.46V7.89h3.31l.15,3.77-.65-.72c.17-.62.46-1.18.86-1.68.4-.49.87-.89,1.41-1.18.54-.29,1.11-.44,1.72-.44.26,0,.5.02.73.07.22.04.43.09.62.15l-.96,3.86c-.16-.1-.37-.19-.64-.25-.27-.06-.55-.1-.84-.1-.32,0-.62.05-.89.16-.28.11-.51.26-.7.47-.19.2-.34.44-.45.72-.11.28-.16.59-.16.94v5.79h-3.51Z"/><path class="cls-6" d="M64.05,39.64c-1,0-1.91-.12-2.71-.36-.81-.24-1.52-.59-2.15-1.05-.62-.46-1.18-1-1.68-1.62l2.24-2.55c.73.97,1.46,1.63,2.19,1.96.73.33,1.49.5,2.28.5.39,0,.75-.05,1.07-.15.32-.1.57-.25.74-.45.17-.2.26-.44.26-.73,0-.22-.05-.41-.16-.59-.11-.17-.26-.33-.45-.46-.19-.13-.41-.25-.68-.36-.26-.11-.54-.2-.83-.28s-.59-.15-.89-.21c-.84-.19-1.58-.42-2.2-.7-.62-.28-1.14-.61-1.56-1.01-.41-.4-.72-.86-.93-1.37-.2-.52-.3-1.09-.3-1.73,0-.68.16-1.31.47-1.88.31-.57.73-1.07,1.26-1.48.53-.41,1.14-.73,1.84-.96.7-.22,1.42-.34,2.18-.34,1,0,1.86.11,2.58.32.72.21,1.34.51,1.85.9.51.39.95.86,1.32,1.42l-2.29,2.2c-.3-.38-.64-.69-.99-.94-.36-.25-.73-.44-1.13-.57-.4-.13-.81-.2-1.23-.2s-.81.05-1.12.16c-.31.11-.56.26-.73.46-.17.2-.26.43-.26.71,0,.25.07.46.22.63.15.17.34.33.59.47.25.14.53.25.85.35.32.09.65.17,1,.23.8.16,1.52.37,2.17.63.65.26,1.21.58,1.68.96.47.38.83.82,1.09,1.34.25.52.38,1.11.38,1.8,0,1.06-.26,1.96-.77,2.69-.52.73-1.22,1.29-2.11,1.68-.89.38-1.92.58-3.08.58"/><path class="cls-6" d="M76.16,39.66c-.86,0-1.59-.19-2.19-.56-.6-.37-1.07-.9-1.39-1.6-.33-.7-.49-1.53-.49-2.5v-7.14h3.51v6.66c0,.46.07.86.22,1.2.14.33.36.59.65.77.29.18.64.27,1.04.27.3,0,.58-.05.84-.15.25-.1.47-.24.65-.43.18-.18.32-.39.42-.63.1-.24.15-.5.15-.79v-6.9h3.51v11.56h-3.29l-.15-2.37.65-.26c-.17.55-.46,1.04-.87,1.47-.41.43-.89.77-1.46,1.02-.57.25-1.17.38-1.81.38"/><path class="cls-6" d="M85.98,44.21v-16.36h3.31l.13,2.59-.65-.2c.1-.48.35-.91.74-1.31.39-.39.89-.71,1.49-.95.6-.24,1.24-.36,1.91-.36.99,0,1.87.26,2.64.77s1.38,1.22,1.82,2.11c.44.89.66,1.93.66,3.1s-.22,2.19-.66,3.09c-.44.9-1.05,1.61-1.83,2.12-.78.52-1.67.77-2.67.77-.65,0-1.28-.12-1.87-.37-.59-.25-1.1-.58-1.5-1-.41-.42-.68-.88-.81-1.37l.81-.31v7.64h-3.51ZM92.01,36.68c.52,0,.98-.13,1.37-.38.39-.25.7-.61.92-1.06s.33-.99.33-1.61-.11-1.14-.33-1.6c-.22-.46-.52-.81-.9-1.07-.38-.25-.85-.38-1.38-.38s-1,.12-1.39.37c-.39.25-.7.6-.92,1.07-.22.46-.33,1-.33,1.61s.11,1.16.33,1.61c.22.45.52.8.92,1.06.39.25.86.38,1.39.38"/><path class="cls-6" d="M100.11,44.21v-16.36h3.31l.13,2.59-.65-.2c.1-.48.35-.91.74-1.31.39-.39.89-.71,1.49-.95.6-.24,1.24-.36,1.91-.36.99,0,1.87.26,2.64.77s1.38,1.22,1.82,2.11c.44.89.66,1.93.66,3.1s-.22,2.19-.66,3.09c-.44.9-1.05,1.61-1.83,2.12-.78.52-1.67.77-2.67.77-.65,0-1.28-.12-1.87-.37-.59-.25-1.1-.58-1.5-1-.41-.42-.67-.88-.81-1.37l.81-.31v7.64h-3.51ZM106.15,36.68c.52,0,.98-.13,1.37-.38.39-.25.7-.61.92-1.06s.33-.99.33-1.61-.11-1.14-.33-1.6c-.22-.46-.52-.81-.9-1.07-.38-.25-.85-.38-1.38-.38s-1,.12-1.39.37c-.39.25-.7.6-.92,1.07-.22.46-.33,1-.33,1.61s.11,1.16.33,1.61.52.8.92,1.06c.39.25.86.38,1.39.38"/><path class="cls-6" d="M119.69,39.64c-1.21,0-2.28-.26-3.21-.78-.94-.52-1.68-1.23-2.22-2.13-.54-.9-.82-1.93-.82-3.09s.27-2.19.82-3.09c.54-.9,1.29-1.61,2.22-2.13.94-.52,2.01-.78,3.21-.78s2.28.26,3.21.78c.94.52,1.67,1.23,2.21,2.13.54.9.81,1.93.81,3.09s-.27,2.19-.81,3.09c-.54.9-1.27,1.61-2.21,2.13s-2.01.78-3.21.78M119.69,36.63c.52,0,.99-.13,1.39-.39.41-.26.72-.62.96-1.07.23-.45.34-.96.33-1.55.01-.58-.09-1.1-.33-1.56-.23-.46-.55-.82-.96-1.08-.41-.26-.87-.39-1.39-.39s-.99.13-1.4.39c-.41.26-.74.62-.97,1.08-.23.46-.34.98-.33,1.56-.01.58.09,1.1.33,1.55.23.45.56.81.97,1.07.41.26.88.39,1.4.39"/><path class="cls-6" d="M127.36,39.42v-11.56h3.31l.15,3.77-.65-.72c.17-.62.46-1.18.86-1.68.4-.49.87-.89,1.41-1.18s1.11-.44,1.72-.44c.26,0,.5.02.73.07.22.04.43.09.62.15l-.96,3.86c-.16-.1-.37-.19-.64-.25-.27-.06-.55-.1-.84-.1-.32,0-.62.05-.89.16-.28.11-.51.26-.7.47-.19.2-.34.44-.45.72-.11.28-.16.59-.16.94v5.79h-3.51Z"/><path class="cls-6" d="M136.22,30.9l.69-3.05h7.09v3.05h-7.78ZM138.27,24.94h3.48v14.48h-3.48v-14.48Z"/><path class="cls-6" d="M57.99,54.14v-5.98h1.3l3.13,4.27-.28-.04c-.03-.19-.05-.37-.07-.54-.02-.17-.03-.34-.05-.5-.01-.16-.03-.33-.03-.5,0-.17-.01-.36-.02-.55,0-.2,0-.42,0-.65v-1.48h1.41v5.98h-1.32l-3.27-4.41.44.06c.03.27.05.51.07.7.02.19.04.36.05.51.01.15.02.28.03.4,0,.12,0,.24.01.35,0,.12,0,.25,0,.39v2h-1.41Z"/><path class="cls-6" d="M66.9,54.23c-.5,0-.94-.1-1.31-.3-.37-.2-.66-.48-.86-.83-.21-.35-.31-.75-.31-1.2,0-.35.06-.67.17-.96.11-.29.27-.54.48-.76.21-.21.45-.38.73-.5.28-.12.59-.17.93-.17s.61.06.88.17c.26.11.49.27.69.48.19.2.34.45.44.73.1.28.15.58.14.91v.37h-3.62l-.2-.77h2.7l-.15.16v-.17c-.01-.14-.06-.27-.13-.38-.08-.11-.18-.2-.3-.26-.12-.06-.27-.09-.43-.09-.22,0-.41.04-.57.13s-.27.22-.35.38c-.08.17-.12.37-.12.62s.05.47.16.65c.11.19.26.33.46.43.2.1.44.15.72.15.19,0,.37-.03.52-.09.15-.06.31-.15.49-.29l.64.91c-.18.15-.36.28-.56.38-.2.1-.4.17-.61.22-.21.05-.41.07-.62.07"/><polygon class="cls-6" points="70.65 54.14 69.15 49.6 70.59 49.6 71.43 52.55 71.25 52.52 72.19 50.23 72.99 50.23 73.99 52.53 73.79 52.54 74.63 49.6 76.07 49.6 74.52 54.14 73.52 54.14 72.53 51.71 72.64 51.72 71.65 54.14 70.65 54.14"/><polygon class="cls-6" points="79.42 54.14 79.42 53.18 82.63 48.9 83.14 49.49 79.64 49.49 79.64 48.16 84.15 48.16 84.15 49.12 80.96 53.4 80.44 52.87 84.25 52.87 84.25 54.14 79.42 54.14"/><path class="cls-6" d="M87.47,54.23c-.5,0-.94-.1-1.31-.3-.37-.2-.66-.48-.86-.83-.21-.35-.31-.75-.31-1.2,0-.35.06-.67.17-.96.11-.29.27-.54.48-.76.21-.21.45-.38.73-.5.28-.12.59-.17.93-.17.32,0,.61.06.88.17.26.11.49.27.69.48.19.2.34.45.44.73.1.28.15.58.14.91v.37h-3.62l-.2-.77h2.7l-.15.16v-.17c-.01-.14-.06-.27-.13-.38-.08-.11-.18-.2-.3-.26-.12-.06-.27-.09-.43-.09-.22,0-.41.04-.57.13s-.27.22-.35.38c-.08.17-.12.37-.12.62s.05.47.16.65c.11.19.26.33.46.43.2.1.44.15.72.15.19,0,.37-.03.52-.09.15-.06.31-.15.49-.29l.64.91c-.18.15-.36.28-.56.38-.2.1-.4.17-.61.22-.21.05-.41.07-.62.07"/><path class="cls-6" d="M91.99,54.22c-.38,0-.72-.1-1.02-.3-.3-.2-.54-.48-.71-.84-.18-.36-.26-.76-.26-1.21s.09-.87.26-1.22c.18-.35.42-.63.73-.83.31-.2.66-.3,1.05-.3.22,0,.41.03.59.09.18.06.34.15.47.26.14.11.25.24.35.38.1.15.17.3.21.47l-.28-.03v-1.08h1.36v4.54h-1.38v-1.09h.31c-.05.15-.12.3-.22.44-.1.14-.23.27-.38.38-.15.11-.31.19-.5.26-.18.06-.38.09-.58.09M92.36,53.06c.21,0,.39-.05.55-.15.15-.1.27-.23.36-.41.09-.18.13-.39.13-.64s-.04-.46-.13-.64c-.09-.18-.21-.32-.36-.42-.15-.1-.34-.15-.55-.15s-.38.05-.53.15c-.15.1-.27.24-.36.42-.09.18-.13.39-.13.64s.04.46.13.64c.09.18.2.32.36.41.15.1.33.15.53.15"/><rect class="cls-6" x="95.95" y="47.82" width="1.37" height="6.32"/><path class="cls-6" d="M100.13,54.22c-.38,0-.72-.1-1.02-.3-.3-.2-.54-.48-.71-.84-.18-.36-.26-.76-.26-1.21s.09-.87.26-1.22c.18-.35.42-.63.73-.83.31-.2.66-.3,1.05-.3.22,0,.41.03.59.09.18.06.34.15.47.26.14.11.25.24.35.38.1.15.17.3.21.47l-.28-.03v-1.08h1.36v4.54h-1.38v-1.09h.31c-.05.15-.12.3-.22.44-.1.14-.23.27-.38.38-.15.11-.31.19-.5.26-.18.06-.38.09-.58.09M100.5,53.06c.21,0,.39-.05.55-.15.15-.1.27-.23.36-.41.09-.18.13-.39.13-.64s-.04-.46-.13-.64c-.09-.18-.21-.32-.36-.42-.15-.1-.34-.15-.55-.15s-.38.05-.53.15c-.15.1-.27.24-.36.42-.09.18-.13.39-.13.64s.04.46.13.64c.09.18.2.32.36.41.15.1.33.15.53.15"/><path class="cls-6" d="M104.08,54.14v-4.54h1.3l.04.92-.27.1c.06-.2.18-.39.34-.56.16-.17.36-.3.58-.41.23-.1.47-.15.72-.15.34,0,.63.07.86.21.23.14.41.35.53.62.12.28.18.61.18,1.01v2.78h-1.38v-2.67c0-.18-.03-.33-.08-.45-.05-.12-.13-.21-.23-.27-.11-.06-.24-.09-.39-.08-.12,0-.23.02-.33.05-.1.04-.19.09-.26.16-.07.07-.13.15-.18.24-.04.09-.06.19-.06.3v2.72h-1.37Z"/><path class="cls-6" d="M111.22,54.23c-.39,0-.74-.1-1.05-.3-.3-.2-.54-.48-.72-.84-.18-.36-.26-.76-.26-1.22s.09-.86.26-1.22.42-.64.73-.84c.31-.2.66-.31,1.06-.31.2,0,.4.03.59.09.19.06.36.15.51.26.15.11.28.23.38.37.1.14.15.28.17.43l-.33.08v-2.92h1.38v6.32h-1.27l-.08-1.03.27.04c-.02.14-.07.28-.17.41-.09.13-.22.25-.36.35-.15.1-.32.18-.51.24-.19.06-.39.09-.6.09M111.57,53.1c.21,0,.39-.05.55-.15.15-.1.27-.25.35-.43.08-.18.12-.4.12-.64s-.04-.47-.12-.65c-.08-.18-.2-.33-.35-.43-.15-.1-.34-.15-.55-.15s-.39.05-.54.15c-.15.1-.27.24-.36.43-.09.18-.13.4-.13.65s.04.46.13.64c.09.18.2.32.36.43.15.1.33.15.54.15"/><path class="cls-2" d="M49.79,18.4c-.04-.09-3.88-9.03-13.14-11.56-.24-.07-.38-.31-.31-.55.06-.23.31-.38.55-.31,5.94,1.63,9.77,5.76,11.94,8.97.3-.16.42-.53.47-.83-1.28-2.38-4.98-8.04-12.01-9.81-.12-.03-.21-.1-.27-.2-.06-.1-.08-.22-.05-.34.03-.12.1-.21.2-.27.1-.06.22-.08.34-.05,3.73.94,7.01,3.02,9.75,6.18.48-.7.09-1.61.07-1.65-1.49-1.88-4.62-4.52-8.93-6.25-3.52-1.41-9.11-2.7-15.77-.8-7.71,2.21-11.93,6.82-13.84,9.55,0,0,.02-.01.02-.02.04-.02.97-.37,1.65.14-.93.74-1.77,1.53-2.53,2.36.05.11.11.23.18.38l.03.06c.07.14.15.27.22.4,2.4-2.73,5.18-4.32,6.67-5.05.3.06.66.19.81.5-2.08,1.28-4.55,3.2-6.57,5.92.09.12.17.24.26.36l.07.09c.08.1.16.19.23.29,3.83-5.31,9.43-7.43,9.5-7.46h.01c.43.29,1.05.88.84,1.67-1.91.87-5.9,3.12-8.74,7.47.1.09.2.19.3.28l.1.09c.08.07.17.14.26.22,1.59-2.48,3.54-4.21,5.12-5.33,2.29-1.63,4.28-2.34,4.67-2.46.32.28.96.95.9,1.67-.04.48-.4.91-1.05,1.29-1.57.91-2.54,1.56-3.34,2.21l-.02.02s-.26.21-.59.53c-.12.11-.24.24-.39.39-.66.67-1.66,1.82-2.59,3.37.12.06.24.12.36.17.03.01.05.02.08.03l.06.02c.12.04.23.09.34.13.54.19,1.08.33,1.61.42,1.98.33,3.92.02,5.75-.91,5.62-2.86,7.02-2.89,9.01-2.71,1.67.15,2.85,0,3.4-.42.73-.57.92-1.61.96-1.9-2.65-1.2-4.32-1.65-7.67-1.34-.26.02-.47-.16-.49-.39-.03-.24.15-.47.39-.49.6-.07,1.19-.1,1.76-.1,5.65,0,9.72,3.06,11.31,4.48.16.14.29.26.4.37.33.32.52.53.55.57l.02.02c.68.77,1.37,1.71,2.35,3.24.41.64.86.97,1.34.99.72.03,1.36-.64,1.63-.97-.15-.38-.94-2.33-2.66-4.55-1.72-2.21-4.75-5.15-9.42-6.58-.11-.03-.21-.11-.26-.22-.06-.1-.07-.23-.03-.34.07-.23.32-.37.56-.3,7.22,2.2,10.79,7.88,12.01,10.26.8.17,1.35-.47,1.63-.91h0Z"/><path class="cls-4" d="M17.79,16.09c.33-.32.55-.5.59-.53l.02-.02c.8-.65,1.77-1.29,3.34-2.21.66-.38,1.01-.82,1.05-1.29.06-.72-.58-1.38-.9-1.67-.39.13-2.37.84-4.67,2.47-1.58,1.12-3.53,2.85-5.12,5.33.04.03.07.06.11.09.03.03.07.05.1.08.03.02.06.04.09.06.79.6,1.59,1.09,2.41,1.46.93-1.56,1.93-2.7,2.59-3.37.15-.15.27-.28.39-.39"/><path class="cls-4" d="M8.35,11.11c-.43.67-.65,1.1-.65,1.11,0,0-.04.16.22.74.76-.83,1.6-1.62,2.53-2.36-.68-.51-1.61-.15-1.65-.14,0,0-.01.01-.02.02-.06.09-.13.19-.19.27-.09.13-.16.25-.24.36"/><path class="cls-4" d="M10,16.1l.07.08c.44.51.9.97,1.37,1.4,2.85-4.35,6.84-6.6,8.74-7.47.21-.79-.41-1.37-.84-1.67h-.01c-.07.03-5.67,2.16-9.5,7.46.03.04.06.08.09.11.03.03.05.06.08.09"/><path class="cls-4" d="M8.47,14l.04.06c.23.37.49.74.76,1.11,2.02-2.71,4.49-4.63,6.57-5.92-.14-.31-.51-.44-.81-.5-1.5.72-4.27,2.31-6.67,5.05.02.03.04.07.06.1.02.03.04.07.06.1"/><path class="cls-3" d="M10.01,47.06c.81,1.02,1.69,1.93,2.61,2.75.15-.07.29-.14.42-.21.03-.02.07-.04.1-.06l.06-.03c.08-.05.16-.1.24-.15-2.88-2.44-4.54-5.34-5.28-6.88.06-.3.19-.66.5-.81,1.32,2.15,3.34,4.72,6.2,6.77.12-.09.24-.18.36-.26.03-.02.06-.05.1-.08l.08-.06c.07-.05.13-.11.2-.17-5.51-3.83-7.71-9.62-7.74-9.69h0c.3-.44.88-1.07,1.67-.86.89,1.95,3.22,6.09,7.78,8.95.08-.09.17-.18.26-.29.03-.03.06-.07.08-.1.02-.03.04-.05.07-.08.06-.07.12-.15.17-.22-2.64-1.62-4.46-3.66-5.62-5.3-1.63-2.29-2.34-4.28-2.46-4.67.28-.32.95-.96,1.67-.9.48.04.91.4,1.29,1.05.91,1.57,1.56,2.54,2.21,3.34l.02.02s.21.26.53.59c.11.12.24.24.39.39.71.7,1.96,1.77,3.66,2.75.03-.08.07-.15.1-.23.21-.53.38-1.07.49-1.59.41-1.97.19-3.91-.66-5.78-2.61-5.74-2.59-7.14-2.32-9.12.23-1.66.13-2.84-.27-3.42-.54-.76-1.57-.99-1.86-1.04-1.31,2.6-1.84,4.24-1.67,7.6,0,.26-.18.46-.41.47-.24.02-.46-.17-.48-.41-.04-.61-.05-1.19-.02-1.76.14-3.15,1.2-5.77,2.38-7.73-.81-.37-1.62-.85-2.41-1.46-.03-.02-.06-.04-.09-.06-.03-.02-.07-.05-.1-.08-.04-.03-.07-.06-.11-.09-.71,1.11-1.35,2.37-1.86,3.8-.04.11-.12.2-.23.25-.11.05-.23.06-.34.02-.23-.08-.35-.34-.27-.57.54-1.54,1.24-2.89,2.03-4.09-.47-.43-.93-.89-1.37-1.4l-.07-.08s-.05-.06-.08-.09c-.03-.04-.06-.08-.09-.11-1.06,1.47-1.99,3.18-2.62,5.17-.08.23-.33.36-.56.29-.23-.07-.36-.33-.29-.56.7-2.17,1.72-4.03,2.91-5.63-.27-.37-.53-.74-.76-1.11l-.04-.06s-.04-.07-.06-.1c-.02-.03-.04-.07-.06-.1-1.5,1.71-2.85,3.86-3.65,6.53-.03.12-.11.21-.22.27-.1.06-.23.07-.34.03-.11-.03-.21-.11-.26-.22-.06-.1-.07-.23-.04-.34.79-2.64,2.16-5.01,4.07-7.11-.26-.58-.22-.74-.22-.74,0,0,.22-.44.65-1.11.07-.11.15-.23.24-.36.06-.09.13-.18.19-.27-1.94,1.41-4.7,4.42-6.61,8.64-1.57,3.46-3.09,8.99-1.48,15.72,1.93,8.06,6.6,12.51,9.21,14.45.12.09.24.17.35.25.3.21.54.37.72.48-.43-.46-.81-.91-1.1-1.31-.02-.04-.37-.97.14-1.65"/><path class="cls-5" d="M49.29,45.03l-.03-.06c-.09-.18-.17-.35-.25-.51-.02-.03-.04-.07-.06-.1l-.03-.06c-.28-.5-.61-1.02-.95-1.51l-.07-.09c-.1-.14-.2-.28-.31-.42-.02-.03-.05-.06-.08-.1l-.06-.08c-.51-.64-1.05-1.23-1.6-1.75l-.1-.09c-.11-.1-.23-.21-.36-.32-.03-.03-.07-.06-.1-.08-.03-.02-.05-.04-.08-.07-.87-.73-1.78-1.32-2.7-1.74-.03-.01-.05-.02-.08-.03l-.06-.02c-.11-.05-.23-.1-.33-.14-.53-.21-1.07-.38-1.59-.49-1.97-.41-3.91-.19-5.78.66-5.74,2.61-7.14,2.59-9.12,2.32-1.66-.23-2.84-.13-3.42.27-.76.54-.99,1.57-1.04,1.86,2.6,1.31,4.24,1.84,7.6,1.67.26,0,.46.18.47.41.02.24-.17.46-.41.48-.61.04-1.19.05-1.76.02-3-.13-5.51-1.11-7.44-2.22-.02.04-.03.07-.05.11l-.02.06s-.02.05-.03.08c-.39.84-.92,1.67-1.57,2.48,1.04.64,2.2,1.22,3.5,1.67.11.04.2.12.26.23.05.11.06.23.02.34-.08.23-.34.35-.57.27-1.41-.5-2.66-1.12-3.78-1.83-.02.02-.04.05-.06.07l-.09.1c-.46.49-.99.97-1.55,1.43,1.41.98,3.03,1.84,4.89,2.43.23.08.36.33.29.56-.08.23-.33.36-.56.29-2.05-.66-3.82-1.61-5.35-2.71-.02.01-.04.03-.06.04l-.09.07c-.41.29-.84.56-1.26.81,1.67,1.42,3.74,2.68,6.29,3.44.11.03.21.11.26.22.06.1.07.23.04.34-.03.11-.11.21-.22.27-.1.06-.23.07-.34.03-2.53-.75-4.83-2.05-6.86-3.85-.03.02-.06.03-.09.05l-.06.03c-.92.42-1.14.35-1.14.35,0,0-.14-.08-.36-.21,1.63,1.75,4.2,3.8,7.55,5.32,3.46,1.57,8.99,3.09,15.72,1.48,8.06-1.93,12.51-6.6,14.45-9.21.09-.12.17-.24.25-.35.46-.65.69-1.08.7-1.08,0,0,.07-.22-.35-1.14"/><path class="cls-1" d="M8.66,41.67c-.31.14-.44.51-.5.81.74,1.54,2.41,4.44,5.29,6.88.43-.25.86-.52,1.26-.81l.09-.07s.04-.03.06-.04c-2.86-2.05-4.87-4.62-6.2-6.77"/><path class="cls-1" d="M15.5,39.71c-.32-.33-.5-.55-.53-.59l-.02-.02c-.65-.8-1.29-1.77-2.21-3.34-.38-.65-.82-1.01-1.29-1.05-.72-.06-1.38.58-1.67.9.13.39.84,2.37,2.46,4.67,1.16,1.64,2.99,3.68,5.62,5.3.65-.8,1.18-1.64,1.57-2.48.01-.03.02-.05.03-.08l.02-.06s.03-.07.05-.11c-1.7-.98-2.95-2.06-3.66-2.75-.15-.15-.28-.27-.39-.39"/><path class="cls-1" d="M12.47,49.88l.06-.03s.06-.03.09-.05c-.92-.82-1.8-1.72-2.61-2.75-.51.68-.16,1.61-.14,1.65.29.41.67.85,1.1,1.31.22.14.35.21.36.22,0,0,.22.07,1.14-.35"/><path class="cls-1" d="M9.52,37.32c-.79-.21-1.37.41-1.67.84h0c.03.09,2.23,5.87,7.74,9.7.56-.46,1.09-.94,1.55-1.43l.09-.1s.04-.05.06-.07c-4.56-2.86-6.88-6.99-7.78-8.95"/></svg>